<?xml version="1.0" standalone="no"?>
<!DOCTYPE svg PUBLIC "-//W3C//DTD SVG 20010904//EN"
 "http://www.w3.org/TR/2001/REC-SVG-20010904/DTD/svg10.dtd">
<svg version="1.0" xmlns="http://www.w3.org/2000/svg"
 width="403.000000pt" height="403.000000pt" viewBox="0 0 403.000000 403.000000"
 preserveAspectRatio="xMidYMid meet">

<g transform="translate(0.000000,403.000000) scale(0.100000,-0.100000)"
fill="#000000" stroke="none">
<path d="M610 3550 l0 -120 120 0 120 0 0 120 0 120 -120 0 -120 0 0 -120z"/>
<path d="M980 3550 l0 -120 120 0 120 0 0 120 0 120 -120 0 -120 0 0 -120z"/>
<path d="M2810 3550 l0 -120 120 0 120 0 0 120 0 120 -120 0 -120 0 0 -120z"/>
<path d="M3180 3550 l0 -120 120 0 120 0 0 120 0 120 -120 0 -120 0 0 -120z"/>
<path d="M980 3180 l0 -120 120 0 120 0 0 120 0 120 -120 0 -120 0 0 -120z"/>
<path d="M1340 3180 l0 -120 120 0 120 0 0 120 0 120 -120 0 -120 0 0 -120z"/>
<path d="M2450 3180 l0 -120 120 0 120 0 0 120 0 120 -120 0 -120 0 0 -120z"/>
<path d="M2810 3180 l0 -120 120 0 120 0 0 120 0 120 -120 0 -120 0 0 -120z"/>
<path d="M1340 2810 l0 -120 120 0 120 0 0 120 0 120 -120 0 -120 0 0 -120z"/>
<path d="M1710 2810 l0 -120 120 0 120 0 0 120 0 120 -120 0 -120 0 0 -120z"/>
<path d="M2080 2810 l0 -120 120 0 120 0 0 120 0 120 -120 0 -120 0 0 -120z"/>
<path d="M2450 2810 l0 -120 120 0 120 0 0 120 0 120 -120 0 -120 0 0 -120z"/>
<path d="M1340 2440 l0 -120 120 0 120 0 0 120 0 120 -120 0 -120 0 0 -120z"/>
<path d="M1710 2440 l0 -120 120 0 120 0 0 120 0 120 -120 0 -120 0 0 -120z"/>
<path d="M2080 2440 l0 -120 120 0 120 0 0 120 0 120 -120 0 -120 0 0 -120z"/>
<path d="M2450 2440 l0 -120 120 0 120 0 0 120 0 120 -120 0 -120 0 0 -120z"/>
<path d="M980 2080 l0 -120 120 0 121 0 -3 118 -3 117 -117 3 -118 3 0 -121z"/>
<path d="M1340 2080 l0 -120 120 0 120 0 0 120 0 120 -120 0 -120 0 0 -120z"/>
<path d="M2450 2080 l0 -120 120 0 120 0 0 120 0 120 -120 0 -120 0 0 -120z"/>
<path d="M2817 2193 c-4 -3 -7 -57 -7 -120 l0 -113 120 0 120 0 0 120 0 120
-113 0 c-63 0 -117 -3 -120 -7z"/>
<path d="M610 1710 l0 -120 120 0 120 0 0 120 0 120 -120 0 -120 0 0 -120z"/>
<path d="M980 1710 l0 -120 120 0 120 0 0 120 0 120 -120 0 -120 0 0 -120z"/>
<path d="M2810 1710 l0 -120 120 0 120 0 0 120 0 120 -120 0 -120 0 0 -120z"/>
<path d="M3180 1710 l0 -120 120 0 120 0 0 120 0 120 -120 0 -120 0 0 -120z"/>
<path d="M3640 655 l0 -395 50 0 50 0 0 395 0 395 -50 0 -50 0 0 -395z"/>
<path d="M870 645 l0 -385 218 0 c169 0 230 4 271 16 71 21 125 71 151 142 20
52 21 73 18 242 -3 176 -4 188 -28 235 -31 60 -97 108 -170 124 -28 6 -143 11
-255 11 l-205 0 0 -385z m463 261 c80 -34 102 -105 94 -307 -5 -141 -17 -177
-70 -209 -28 -18 -51 -20 -204 -20 l-173 0 0 275 0 275 160 0 c114 0 170 -4
193 -14z"/>
<path d="M226 778 c21 -29 67 -91 101 -137 35 -47 61 -91 59 -98 -4 -10 -132
-184 -199 -270 -7 -10 5 -13 54 -13 l64 1 72 99 c40 55 76 100 80 100 5 0 41
-45 80 -100 l73 -100 60 0 c46 0 59 3 54 13 -5 6 -53 72 -107 144 l-99 133 94
127 c52 71 98 134 102 141 5 9 -8 12 -52 12 l-60 0 -71 -95 c-39 -52 -73 -95
-75 -95 -2 0 -36 43 -75 95 l-71 95 -61 0 -61 0 38 -52z"/>
<path d="M1765 821 c-11 -5 -29 -19 -40 -31 -19 -21 -20 -36 -20 -247 l0 -225
33 -29 32 -29 205 0 205 0 0 50 0 50 -190 0 -190 0 0 65 0 65 190 0 190 0 0
130 c0 75 -5 139 -11 154 -21 46 -62 56 -231 55 -84 0 -162 -4 -173 -8z m315
-161 l0 -71 -137 3 -138 3 -3 54 c-5 84 -10 81 143 81 l135 0 0 -70z"/>
<path d="M2304 813 c4 -10 55 -139 113 -286 l107 -268 55 3 55 3 96 240 c53
132 104 259 113 283 l17 42 -53 0 -52 0 -84 -215 c-47 -119 -87 -218 -91 -220
-3 -2 -44 94 -91 213 l-84 217 -54 3 c-48 3 -53 1 -47 -15z"/>
<path d="M3035 818 c-53 -29 -55 -37 -55 -271 0 -131 4 -226 10 -238 23 -43
57 -49 270 -49 l200 0 0 50 0 50 -190 0 -190 0 0 65 0 65 190 0 190 0 0 120
c0 209 -13 220 -247 220 -96 0 -166 -5 -178 -12z m320 -158 l0 -65 -137 -3
-138 -3 0 71 0 71 138 -3 137 -3 0 -65z"/>
</g>
</svg>
