<?xml version="1.0" standalone="no"?>
<!DOCTYPE svg PUBLIC "-//W3C//DTD SVG 20010904//EN"
 "http://www.w3.org/TR/2001/REC-SVG-20010904/DTD/svg10.dtd">
<svg version="1.0" xmlns="http://www.w3.org/2000/svg"
 width="405.000000pt" height="405.000000pt" viewBox="0 0 405.000000 405.000000"
 preserveAspectRatio="xMidYMid meet">

<g transform="translate(0.000000,405.000000) scale(0.100000,-0.100000)"
fill="#000000" stroke="none">
<path d="M0 2025 l0 -2025 2025 0 2025 0 0 2025 0 2025 -2025 0 -2025 0 0
-2025z m860 1530 l0 -125 -125 0 -125 0 0 125 0 125 125 0 125 0 0 -125z m370
0 l0 -125 -125 0 -125 0 0 125 0 125 125 0 125 0 0 -125z m1840 0 l0 -125
-125 0 -125 0 0 125 0 125 125 0 125 0 0 -125z m370 0 l0 -125 -125 0 -125 0
0 125 0 125 125 0 125 0 0 -125z m-2210 -360 l0 -125 -125 0 -125 0 0 125 0
125 125 0 125 0 0 -125z m368 -2 l3 -123 -126 0 -125 0 0 125 0 126 123 -3
122 -3 3 -122z m1102 2 l0 -125 -125 0 -125 0 0 118 c0 65 3 122 7 125 3 4 60
7 125 7 l118 0 0 -125z m370 0 l0 -125 -125 0 -125 0 0 118 c0 65 3 122 7 125
3 4 60 7 125 7 l118 0 0 -125z m-1470 -370 l0 -125 -125 0 -125 0 0 125 0 125
125 0 125 0 0 -125z m368 -2 l3 -123 -126 0 -125 0 0 125 0 126 123 -3 122 -3
3 -122z m362 2 l0 -125 -125 0 -125 0 0 118 c0 65 3 122 7 125 3 4 60 7 125 7
l118 0 0 -125z m370 0 l0 -125 -125 0 -125 0 0 125 0 125 125 0 125 0 0 -125z
m-1100 -370 l0 -125 -125 0 -125 0 0 125 0 125 125 0 125 0 0 -125z m370 0 l0
-125 -125 0 -125 0 0 125 0 125 125 0 125 0 0 -125z m360 0 l0 -125 -125 0
-125 0 0 118 c0 65 3 122 7 125 3 4 60 7 125 7 l118 0 0 -125z m370 0 l0 -125
-125 0 -125 0 0 125 0 125 125 0 125 0 0 -125z m-1470 -370 l0 -125 -125 0
-125 0 0 125 0 125 125 0 125 0 0 -125z m370 0 l0 -125 -125 0 -125 0 0 125 0
125 125 0 125 0 0 -125z m1100 0 l0 -125 -125 0 -125 0 0 125 0 125 125 0 125
0 0 -125z m370 0 l0 -125 -125 0 -125 0 0 125 0 125 125 0 125 0 0 -125z
m-2210 -370 l0 -125 -125 0 -125 0 0 125 0 125 125 0 125 0 0 -125z m370 0 l0
-125 -125 0 -125 0 0 125 0 125 125 0 125 0 0 -125z m1840 0 l0 -125 -125 0
-125 0 0 125 0 125 125 0 125 0 0 -125z m370 0 l0 -125 -125 0 -125 0 0 125 0
125 125 0 125 0 0 -125z m310 -1056 l0 -400 -52 3 -53 3 -3 398 -2 397 55 0
55 0 0 -401z m-2384 366 c67 -19 126 -72 155 -137 22 -50 24 -65 24 -239 l0
-185 -30 -60 c-36 -70 -97 -116 -175 -133 -28 -6 -143 -11 -255 -11 l-205 0 0
390 0 390 218 0 c164 0 231 -4 268 -15z m-971 -281 l70 -95 23 28 c12 15 43
58 70 95 l47 67 69 1 68 0 -24 -32 c-14 -18 -61 -82 -106 -141 l-81 -109 103
-136 c56 -76 106 -143 110 -149 5 -10 -8 -13 -57 -13 l-65 0 -78 105 c-43 58
-81 102 -85 97 -3 -4 -38 -51 -77 -104 l-72 -98 -61 0 c-50 0 -60 3 -55 15 3
8 50 75 105 149 l100 135 -104 140 -105 141 68 0 67 -1 70 -95z m1746 80 c47
-24 59 -66 59 -204 l0 -120 -190 0 -190 0 0 -65 0 -65 191 0 190 0 -3 -52 -3
-53 -185 -3 c-203 -3 -247 4 -279 45 -20 24 -21 39 -21 245 l0 220 34 34 34
34 166 0 c132 0 173 -3 197 -16z m360 -199 c46 -118 86 -215 89 -215 3 0 16
28 29 63 13 34 51 131 84 215 l60 152 53 0 c30 0 54 -3 54 -7 0 -5 -51 -135
-112 -290 l-113 -283 -56 0 -55 0 -108 270 c-59 148 -110 279 -113 290 -5 18
-1 20 49 20 l55 0 84 -215z m935 181 l34 -34 0 -136 0 -136 -190 0 -190 0 0
-65 0 -65 190 0 190 0 0 -56 0 -55 -210 3 -210 3 -32 33 -33 32 -3 198 c-5
313 -6 312 252 312 l168 0 34 -34z"/>
<path d="M998 924 c-5 -4 -8 -128 -8 -276 l0 -268 166 0 c196 0 225 9 255 74
28 61 27 332 0 393 -31 66 -59 76 -246 81 -88 2 -163 1 -167 -4z"/>
<path d="M1820 670 l0 -60 135 0 135 0 0 60 0 60 -135 0 -135 0 0 -60z"/>
<path d="M3090 670 l0 -60 135 0 135 0 0 60 0 60 -135 0 -135 0 0 -60z"/>
</g>
</svg>
